<svg width="14" height="14" viewBox="0 0 14 14" fill="none" xmlns="http://www.w3.org/2000/svg">
<path d="M7.00003 1.99041C8.63169 1.99041 8.82521 1.99652 9.46993 2.02606C11.126 2.10143 11.8996 2.88722 11.975 4.53111C12.0045 5.17532 12.0101 5.36884 12.0101 7.00051C12.0101 8.63268 12.004 8.82569 11.975 9.4699C11.8991 11.1123 11.1276 11.8996 9.46993 11.9749C8.82521 12.0045 8.63271 12.0106 7.00003 12.0106C5.36836 12.0106 5.17484 12.0045 4.53063 11.9749C2.87044 11.8991 2.10095 11.1097 2.02558 9.46939C1.99605 8.82518 1.98993 8.63217 1.98993 7C1.98993 5.36833 1.99655 5.17532 2.02558 4.5306C2.10146 2.88722 2.87299 2.10092 4.53063 2.02555C5.17535 1.99652 5.36836 1.99041 7.00003 1.99041ZM7.00003 0.888885C5.34035 0.888885 5.13257 0.896015 4.48072 0.925552C2.26137 1.0274 1.02794 2.25879 0.926092 4.48018C0.896046 5.13254 0.888916 5.34032 0.888916 7C0.888916 8.65967 0.896046 8.86796 0.925583 9.51981C1.02743 11.7392 2.25882 12.9726 4.48021 13.0744C5.13257 13.104 5.34035 13.1111 7.00003 13.1111C8.6597 13.1111 8.86799 13.104 9.51984 13.0744C11.7372 12.9726 12.9736 11.7412 13.074 9.51981C13.104 8.86796 13.1111 8.65967 13.1111 7C13.1111 5.34032 13.104 5.13254 13.0745 4.48069C12.9747 2.26338 11.7417 1.02791 9.52035 0.926061C8.86799 0.896015 8.6597 0.888885 7.00003 0.888885ZM7.00003 3.86194C5.26702 3.86194 3.86197 5.26699 3.86197 7C3.86197 8.73301 5.26702 10.1386 7.00003 10.1386C8.73304 10.1386 10.1381 8.73351 10.1381 7C10.1381 5.26699 8.73304 3.86194 7.00003 3.86194ZM7.00003 9.03703C5.87507 9.03703 4.96299 8.12546 4.96299 7C4.96299 5.87504 5.87507 4.96296 7.00003 4.96296C8.12498 4.96296 9.03706 5.87504 9.03706 7C9.03706 8.12546 8.12498 9.03703 7.00003 9.03703ZM10.2623 3.00486C9.85697 3.00486 9.5285 3.33333 9.5285 3.73819C9.5285 4.14305 9.85697 4.47152 10.2623 4.47152C10.6672 4.47152 10.9952 4.14305 10.9952 3.73819C10.9952 3.33333 10.6672 3.00486 10.2623 3.00486Z" fill="#1E1E1E"/>
</svg>
