<svg width="14" height="14" viewBox="0 0 14 14" fill="none" xmlns="http://www.w3.org/2000/svg">
<path d="M5.98151 7.50926C6.20021 7.80164 6.47923 8.04356 6.79966 8.21862C7.12008 8.39368 7.4744 8.49779 7.8386 8.52387C8.20279 8.54995 8.56833 8.4974 8.91043 8.36979C9.25253 8.24218 9.56318 8.04248 9.82132 7.78426L11.3491 6.25648C11.8129 5.77624 12.0696 5.13304 12.0638 4.46541C12.058 3.79778 11.7902 3.15914 11.3181 2.68703C10.846 2.21493 10.2073 1.94714 9.5397 1.94133C8.87207 1.93553 8.22887 2.19219 7.74864 2.65601L6.87271 3.52685" stroke="#1E1E1E" stroke-linecap="round" stroke-linejoin="round"/>
<path d="M8.01855 6.49074C7.79985 6.19836 7.52083 5.95643 7.2004 5.78137C6.87998 5.60631 6.52566 5.5022 6.16146 5.47612C5.79727 5.45004 5.43173 5.50259 5.08963 5.6302C4.74753 5.75781 4.43688 5.95751 4.17874 6.21574L2.65096 7.74351C2.18713 8.22375 1.93048 8.86695 1.93628 9.53458C1.94209 10.2022 2.20988 10.8409 2.68198 11.313C3.15408 11.7851 3.79273 12.0529 4.46036 12.0587C5.12799 12.0645 5.77119 11.8078 6.25143 11.344L7.12226 10.4731" stroke="#1E1E1E" stroke-linecap="round" stroke-linejoin="round"/>
</svg>
